<?xml version="1.0" encoding="utf-8" standalone="no"?>
<!DOCTYPE svg PUBLIC "-//W3C//DTD SVG 1.1//EN"
  "http://www.w3.org/Graphics/SVG/1.1/DTD/svg11.dtd">
<!-- Created with matplotlib (http://matplotlib.sourceforge.net/) -->
<svg height="432pt" version="1.1" viewBox="0 0 792 432" width="792pt" xmlns="http://www.w3.org/2000/svg" xmlns:xlink="http://www.w3.org/1999/xlink">
 <defs>
  <style type="text/css">
*{stroke-linecap:square;stroke-linejoin:round;}
  </style>
 </defs>
 <g id="figure_1">
  <g id="patch_1">
   <path d="
M0 432
L792 432
L792 0
L0 0
z
" style="fill:#ffffff;"/>
  </g>
  <g id="axes_1">
   <g id="patch_2">
    <path clip-path="url(#p01a57c7be1)" d="
M335.981 350.1
L414.156 252.073
L386.256 129.835
L273.291 75.434
L160.326 129.835
L132.426 252.073
L210.6 350.1
L335.981 350.1" style="fill:none;stroke:#dd0000;"/>
   </g>
   <g id="patch_3">
    <path clip-path="url(#p01a57c7be1)" d="
M414.156 252.073
L273.291 75.434
L132.426 252.073
L335.981 350.1
L386.256 129.835
L160.326 129.835
L210.6 350.1
L414.156 252.073" style="fill:none;stroke:#990099;"/>
   </g>
   <g id="patch_4">
    <path clip-path="url(#p01a57c7be1)" d="
M273.291 75.434
L335.981 350.1
L160.326 129.835
L414.156 252.073
L132.426 252.073
L386.256 129.835
L210.6 350.1
L273.291 75.434" style="fill:none;stroke:#0000dd;"/>
   </g>
   <g id="patch_5">
    <path clip-path="url(#p01a57c7be1)" d="
M288.774 252.073
L308.081 227.862
L301.191 197.672
L273.291 184.236
L245.391 197.672
L238.5 227.862
L257.807 252.073
L288.774 252.073" style="fill:none;stroke:#dd0000;"/>
   </g>
   <g id="patch_6">
    <path clip-path="url(#p01a57c7be1)" d="
M308.081 227.862
L273.291 184.236
L238.5 227.862
L288.774 252.073
L301.191 197.672
L245.391 197.672
L257.807 252.073
L308.081 227.862" style="fill:none;stroke:#990099;"/>
   </g>
   <g id="patch_7">
    <path clip-path="url(#p01a57c7be1)" d="
M273.291 184.236
L288.774 252.073
L245.391 197.672
L308.081 227.862
L238.5 227.862
L301.191 197.672
L257.807 252.073
L273.291 184.236" style="fill:none;stroke:#0000dd;"/>
   </g>
   <g id="patch_8">
    <path clip-path="url(#p01a57c7be1)" d="
M559.452 252.073
L700.317 184.236
L587.352 129.835
L559.452 252.073
L587.352 129.835
L496.761 173.461
L559.452 252.073
L496.761 173.461
L478.818 252.073
L559.452 252.073
L478.818 252.073
L519.135 302.628
L559.452 252.073
L519.135 302.628
L570.991 302.628
L559.452 252.073
L570.991 302.628
L596.919 270.116
L559.452 252.073
L596.919 270.116
L589.498 237.603
L559.452 252.073
L589.498 237.603
L565.403 226
L559.452 252.073
L565.403 226
L546.08 235.305
L559.452 252.073
L546.08 235.305
L542.253 252.073
L559.452 252.073
L542.253 252.073
L550.852 262.856
L559.452 252.073
L550.852 262.856
L561.913 262.856
L559.452 252.073
L561.913 262.856
L567.443 255.921
L559.452 252.073
L567.443 255.921
L565.86 248.987
L559.452 252.073
L565.86 248.987
L560.721 246.512
L559.452 252.073
L560.721 246.512
L556.6 248.496
L559.452 252.073
L556.6 248.496
L555.783 252.073
L559.452 252.073
L555.783 252.073
L557.618 254.373
L559.452 252.073
L557.618 254.373
L559.977 254.373
L559.452 252.073
L559.977 254.373
L561.156 252.894
L559.452 252.073
L561.156 252.894
L560.819 251.415
L559.452 252.073
L560.819 251.415
L559.723 250.887
L559.452 252.073" style="fill:none;stroke:#0044aa;"/>
   </g>
  </g>
 </g>
 <defs>
  <clipPath id="p01a57c7be1">
   <rect height="334.8" width="613.8" x="99.0" y="43.2"/>
  </clipPath>
 </defs>
</svg>
