<?xml version="1.0" encoding="utf-8" standalone="no"?>
<!DOCTYPE svg PUBLIC "-//W3C//DTD SVG 1.1//EN"
  "http://www.w3.org/Graphics/SVG/1.1/DTD/svg11.dtd">
<!-- Created with matplotlib (http://matplotlib.sourceforge.net/) -->
<svg height="504pt" version="1.1" viewBox="0 0 504 504" width="504pt" xmlns="http://www.w3.org/2000/svg" xmlns:xlink="http://www.w3.org/1999/xlink">
 <defs>
  <style type="text/css">
*{stroke-linecap:square;stroke-linejoin:round;}
  </style>
 </defs>
 <g id="figure_1">
  <g id="patch_1">
   <path d="
M0 504
L504 504
L504 0
L0 0
z
" style="fill:#ffffff;"/>
  </g>
  <g id="axes_1">
   <g id="patch_2">
    <path clip-path="url(#p41d7ee9abc)" d="
M219.24 284.76
L416.451 189.788
L258.3 113.627
L219.24 284.76
L258.3 113.627
L131.473 174.704
L219.24 284.76
L131.473 174.704
L106.353 284.76
L219.24 284.76
L106.353 284.76
L162.797 355.538
L219.24 284.76
L162.797 355.538
L235.395 355.538
L219.24 284.76
L235.395 355.538
L271.693 310.02
L219.24 284.76
L271.693 310.02
L261.304 264.503
L219.24 284.76
L261.304 264.503
L227.571 248.258
L219.24 284.76
L227.571 248.258
L200.52 261.285
L219.24 284.76
L200.52 261.285
L195.162 284.76
L219.24 284.76
L195.162 284.76
L207.201 299.857
L219.24 284.76
L207.201 299.857
L222.686 299.857
L219.24 284.76
L222.686 299.857
L230.428 290.148
L219.24 284.76
L230.428 290.148
L228.212 280.439
L219.24 284.76
L228.212 280.439
L221.017 276.974
L219.24 284.76
L221.017 276.974
L215.247 279.753
L219.24 284.76
L215.247 279.753
L214.104 284.76
L219.24 284.76
L214.104 284.76
L216.672 287.98
L219.24 284.76
L216.672 287.98
L219.975 287.98
L219.24 284.76
L219.975 287.98
L221.627 285.91
L219.24 284.76
L221.627 285.91
L221.155 283.839
L219.24 284.76
L221.155 283.839
L219.619 283.098
L219.24 284.76" style="fill:none;stroke:#0044aa;"/>
   </g>
  </g>
 </g>
 <defs>
  <clipPath id="p41d7ee9abc">
   <rect height="390.6" width="390.6" x="63.0" y="50.4"/>
  </clipPath>
 </defs>
</svg>
